<mxfile host="app.diagrams.net" agent="Mozilla/5.0 (Macintosh; Intel Mac OS X 10_15_7) AppleWebKit/537.36 (KHTML, like Gecko) Chrome/129.0.0.0 Safari/537.36" version="24.7.17">
  <diagram name="第 1 页" id="deOi8Exl6_n3cPkb1L3u">
    <mxGraphModel dx="1781" dy="522" grid="1" gridSize="10" guides="1" tooltips="1" connect="1" arrows="1" fold="1" page="1" pageScale="1" pageWidth="827" pageHeight="1169" math="0" shadow="0">
      <root>
        <mxCell id="0" />
        <mxCell id="1" parent="0" />
        <mxCell id="Cq6oSJsUIb3Mimnd7tFU-2" value="1" style="ellipse;whiteSpace=wrap;html=1;aspect=fixed;" vertex="1" parent="1">
          <mxGeometry x="80" y="10" width="80" height="80" as="geometry" />
        </mxCell>
        <mxCell id="Cq6oSJsUIb3Mimnd7tFU-3" value="2" style="ellipse;whiteSpace=wrap;html=1;aspect=fixed;" vertex="1" parent="1">
          <mxGeometry x="80" y="140" width="80" height="80" as="geometry" />
        </mxCell>
        <mxCell id="Cq6oSJsUIb3Mimnd7tFU-4" value="3" style="ellipse;whiteSpace=wrap;html=1;aspect=fixed;" vertex="1" parent="1">
          <mxGeometry x="80" y="270" width="80" height="80" as="geometry" />
        </mxCell>
        <mxCell id="Cq6oSJsUIb3Mimnd7tFU-5" value="4" style="ellipse;whiteSpace=wrap;html=1;aspect=fixed;" vertex="1" parent="1">
          <mxGeometry x="80" y="390" width="80" height="80" as="geometry" />
        </mxCell>
        <mxCell id="Cq6oSJsUIb3Mimnd7tFU-6" value="5" style="ellipse;whiteSpace=wrap;html=1;aspect=fixed;" vertex="1" parent="1">
          <mxGeometry x="80" y="510" width="80" height="80" as="geometry" />
        </mxCell>
        <mxCell id="Cq6oSJsUIb3Mimnd7tFU-7" value="投入5角" style="text;html=1;align=center;verticalAlign=middle;resizable=0;points=[];autosize=1;strokeColor=none;fillColor=none;" vertex="1" parent="1">
          <mxGeometry x="85" y="90" width="70" height="30" as="geometry" />
        </mxCell>
        <mxCell id="Cq6oSJsUIb3Mimnd7tFU-8" value="投入一元" style="text;html=1;align=center;verticalAlign=middle;resizable=0;points=[];autosize=1;strokeColor=none;fillColor=none;" vertex="1" parent="1">
          <mxGeometry x="85" y="220" width="70" height="30" as="geometry" />
        </mxCell>
        <mxCell id="Cq6oSJsUIb3Mimnd7tFU-9" value="选择橙汁" style="text;html=1;align=center;verticalAlign=middle;resizable=0;points=[];autosize=1;strokeColor=none;fillColor=none;" vertex="1" parent="1">
          <mxGeometry x="85" y="350" width="70" height="30" as="geometry" />
        </mxCell>
        <mxCell id="Cq6oSJsUIb3Mimnd7tFU-10" value="选择啤酒" style="text;html=1;align=center;verticalAlign=middle;resizable=0;points=[];autosize=1;strokeColor=none;fillColor=none;" vertex="1" parent="1">
          <mxGeometry x="85" y="470" width="70" height="30" as="geometry" />
        </mxCell>
        <mxCell id="Cq6oSJsUIb3Mimnd7tFU-12" value="售货机里面有零钱" style="text;html=1;align=center;verticalAlign=middle;resizable=0;points=[];autosize=1;strokeColor=none;fillColor=none;" vertex="1" parent="1">
          <mxGeometry x="60" y="588" width="120" height="30" as="geometry" />
        </mxCell>
        <mxCell id="Cq6oSJsUIb3Mimnd7tFU-13" value="6送出橙汁" style="ellipse;whiteSpace=wrap;html=1;aspect=fixed;" vertex="1" parent="1">
          <mxGeometry x="710" y="65" width="80" height="80" as="geometry" />
        </mxCell>
        <mxCell id="Cq6oSJsUIb3Mimnd7tFU-14" value="7送出啤酒" style="ellipse;whiteSpace=wrap;html=1;aspect=fixed;" vertex="1" parent="1">
          <mxGeometry x="710" y="190" width="80" height="80" as="geometry" />
        </mxCell>
        <mxCell id="Cq6oSJsUIb3Mimnd7tFU-15" value="8退出一元" style="ellipse;whiteSpace=wrap;html=1;aspect=fixed;" vertex="1" parent="1">
          <mxGeometry x="710" y="325" width="80" height="80" as="geometry" />
        </mxCell>
        <mxCell id="Cq6oSJsUIb3Mimnd7tFU-16" value="9退还5角" style="ellipse;whiteSpace=wrap;html=1;aspect=fixed;" vertex="1" parent="1">
          <mxGeometry x="710" y="445" width="80" height="80" as="geometry" />
        </mxCell>
        <mxCell id="Cq6oSJsUIb3Mimnd7tFU-18" value="" style="endArrow=none;html=1;rounded=0;entryX=0.013;entryY=0.663;entryDx=0;entryDy=0;entryPerimeter=0;exitX=1;exitY=0.5;exitDx=0;exitDy=0;" edge="1" parent="1" source="Cq6oSJsUIb3Mimnd7tFU-6" target="Cq6oSJsUIb3Mimnd7tFU-15">
          <mxGeometry width="50" height="50" relative="1" as="geometry">
            <mxPoint x="370" y="500" as="sourcePoint" />
            <mxPoint x="420" y="450" as="targetPoint" />
          </mxGeometry>
        </mxCell>
        <mxCell id="Cq6oSJsUIb3Mimnd7tFU-19" value="&lt;font style=&quot;font-size: 30px;&quot;&gt;～&lt;/font&gt;" style="edgeLabel;html=1;align=center;verticalAlign=middle;resizable=0;points=[];" vertex="1" connectable="0" parent="Cq6oSJsUIb3Mimnd7tFU-18">
          <mxGeometry x="-0.0565" relative="1" as="geometry">
            <mxPoint as="offset" />
          </mxGeometry>
        </mxCell>
        <mxCell id="Cq6oSJsUIb3Mimnd7tFU-20" value="E" style="text;html=1;align=center;verticalAlign=middle;resizable=0;points=[];autosize=1;strokeColor=none;fillColor=none;" vertex="1" parent="1">
          <mxGeometry x="-35" y="115" width="30" height="30" as="geometry" />
        </mxCell>
        <mxCell id="Cq6oSJsUIb3Mimnd7tFU-21" value="E" style="text;html=1;align=center;verticalAlign=middle;resizable=0;points=[];autosize=1;strokeColor=none;fillColor=none;" vertex="1" parent="1">
          <mxGeometry x="-35" y="358" width="30" height="30" as="geometry" />
        </mxCell>
        <mxCell id="Cq6oSJsUIb3Mimnd7tFU-22" value="" style="endArrow=none;html=1;rounded=0;entryX=0;entryY=0.713;entryDx=0;entryDy=0;entryPerimeter=0;exitX=1.033;exitY=0;exitDx=0;exitDy=0;exitPerimeter=0;" edge="1" parent="1" source="Cq6oSJsUIb3Mimnd7tFU-20" target="Cq6oSJsUIb3Mimnd7tFU-2">
          <mxGeometry width="50" height="50" relative="1" as="geometry">
            <mxPoint x="-170" y="210" as="sourcePoint" />
            <mxPoint x="-120" y="160" as="targetPoint" />
          </mxGeometry>
        </mxCell>
        <mxCell id="Cq6oSJsUIb3Mimnd7tFU-23" value="" style="endArrow=none;html=1;rounded=0;entryX=0.038;entryY=0.75;entryDx=0;entryDy=0;entryPerimeter=0;" edge="1" parent="1" source="Cq6oSJsUIb3Mimnd7tFU-20" target="Cq6oSJsUIb3Mimnd7tFU-3">
          <mxGeometry width="50" height="50" relative="1" as="geometry">
            <mxPoint x="-40" y="240" as="sourcePoint" />
            <mxPoint x="10" y="190" as="targetPoint" />
          </mxGeometry>
        </mxCell>
        <mxCell id="Cq6oSJsUIb3Mimnd7tFU-24" value="" style="endArrow=none;html=1;rounded=0;entryX=0;entryY=0.5;entryDx=0;entryDy=0;exitX=0.967;exitY=0.033;exitDx=0;exitDy=0;exitPerimeter=0;" edge="1" parent="1" source="Cq6oSJsUIb3Mimnd7tFU-21" target="Cq6oSJsUIb3Mimnd7tFU-4">
          <mxGeometry width="50" height="50" relative="1" as="geometry">
            <mxPoint x="-90" y="430" as="sourcePoint" />
            <mxPoint x="-40" y="380" as="targetPoint" />
          </mxGeometry>
        </mxCell>
        <mxCell id="Cq6oSJsUIb3Mimnd7tFU-25" value="" style="endArrow=none;html=1;rounded=0;entryX=0.013;entryY=0.763;entryDx=0;entryDy=0;entryPerimeter=0;exitX=0.9;exitY=1;exitDx=0;exitDy=0;exitPerimeter=0;" edge="1" parent="1" source="Cq6oSJsUIb3Mimnd7tFU-21" target="Cq6oSJsUIb3Mimnd7tFU-5">
          <mxGeometry width="50" height="50" relative="1" as="geometry">
            <mxPoint x="-90" y="480" as="sourcePoint" />
            <mxPoint x="-40" y="430" as="targetPoint" />
          </mxGeometry>
        </mxCell>
        <mxCell id="Cq6oSJsUIb3Mimnd7tFU-28" value="&lt;font style=&quot;font-size: 30px;&quot;&gt;^&lt;/font&gt;" style="text;html=1;align=center;verticalAlign=middle;resizable=0;points=[];autosize=1;strokeColor=none;fillColor=none;" vertex="1" parent="1">
          <mxGeometry x="650" y="110" width="40" height="50" as="geometry" />
        </mxCell>
        <mxCell id="Cq6oSJsUIb3Mimnd7tFU-33" value="&lt;font style=&quot;font-size: 30px;&quot;&gt;^&lt;/font&gt;" style="text;html=1;align=center;verticalAlign=middle;resizable=0;points=[];autosize=1;strokeColor=none;fillColor=none;" vertex="1" parent="1">
          <mxGeometry x="640" y="220" width="40" height="50" as="geometry" />
        </mxCell>
        <mxCell id="Cq6oSJsUIb3Mimnd7tFU-34" value="11投入一元硬币，选择饮品" style="ellipse;whiteSpace=wrap;html=1;aspect=fixed;" vertex="1" parent="1">
          <mxGeometry x="374" y="250" width="80" height="80" as="geometry" />
        </mxCell>
        <mxCell id="Cq6oSJsUIb3Mimnd7tFU-36" value="10按下按钮" style="ellipse;whiteSpace=wrap;html=1;aspect=fixed;" vertex="1" parent="1">
          <mxGeometry x="260" y="335" width="80" height="80" as="geometry" />
        </mxCell>
        <mxCell id="Cq6oSJsUIb3Mimnd7tFU-37" value="" style="endArrow=none;html=1;rounded=0;entryX=0;entryY=0.5;entryDx=0;entryDy=0;exitX=0.975;exitY=0.613;exitDx=0;exitDy=0;exitPerimeter=0;" edge="1" parent="1" source="Cq6oSJsUIb3Mimnd7tFU-5" target="Cq6oSJsUIb3Mimnd7tFU-36">
          <mxGeometry width="50" height="50" relative="1" as="geometry">
            <mxPoint x="160" y="540" as="sourcePoint" />
            <mxPoint x="210" y="490" as="targetPoint" />
          </mxGeometry>
        </mxCell>
        <mxCell id="Cq6oSJsUIb3Mimnd7tFU-39" value="V" style="text;html=1;align=center;verticalAlign=middle;resizable=0;points=[];autosize=1;strokeColor=none;fillColor=none;" vertex="1" parent="1">
          <mxGeometry x="220" y="358" width="30" height="30" as="geometry" />
        </mxCell>
        <mxCell id="Cq6oSJsUIb3Mimnd7tFU-40" value="" style="endArrow=none;html=1;rounded=0;entryX=0.05;entryY=0.775;entryDx=0;entryDy=0;entryPerimeter=0;exitX=1;exitY=0;exitDx=0;exitDy=0;" edge="1" parent="1" source="Cq6oSJsUIb3Mimnd7tFU-36" target="Cq6oSJsUIb3Mimnd7tFU-34">
          <mxGeometry width="50" height="50" relative="1" as="geometry">
            <mxPoint x="420" y="450" as="sourcePoint" />
            <mxPoint x="470" y="400" as="targetPoint" />
          </mxGeometry>
        </mxCell>
        <mxCell id="Cq6oSJsUIb3Mimnd7tFU-41" value="" style="endArrow=none;html=1;rounded=0;entryX=0;entryY=0.638;entryDx=0;entryDy=0;entryPerimeter=0;exitX=1.038;exitY=0.65;exitDx=0;exitDy=0;exitPerimeter=0;" edge="1" parent="1" source="Cq6oSJsUIb3Mimnd7tFU-3" target="Cq6oSJsUIb3Mimnd7tFU-34">
          <mxGeometry width="50" height="50" relative="1" as="geometry">
            <mxPoint x="200" y="280" as="sourcePoint" />
            <mxPoint x="250" y="230" as="targetPoint" />
          </mxGeometry>
        </mxCell>
        <mxCell id="Cq6oSJsUIb3Mimnd7tFU-42" value="&lt;font style=&quot;font-size: 30px;&quot;&gt;^&lt;/font&gt;" style="text;html=1;align=center;verticalAlign=middle;resizable=0;points=[];autosize=1;strokeColor=none;fillColor=none;" vertex="1" parent="1">
          <mxGeometry x="334" y="290" width="40" height="50" as="geometry" />
        </mxCell>
        <mxCell id="Cq6oSJsUIb3Mimnd7tFU-44" value="12退还5角且有售货机零钱" style="ellipse;whiteSpace=wrap;html=1;aspect=fixed;" vertex="1" parent="1">
          <mxGeometry x="490" y="320" width="80" height="80" as="geometry" />
        </mxCell>
        <mxCell id="Cq6oSJsUIb3Mimnd7tFU-45" value="" style="endArrow=none;html=1;rounded=0;entryX=0;entryY=0.5;entryDx=0;entryDy=0;exitX=0.938;exitY=0.625;exitDx=0;exitDy=0;exitPerimeter=0;" edge="1" parent="1" source="Cq6oSJsUIb3Mimnd7tFU-34" target="Cq6oSJsUIb3Mimnd7tFU-44">
          <mxGeometry width="50" height="50" relative="1" as="geometry">
            <mxPoint x="420" y="450" as="sourcePoint" />
            <mxPoint x="470" y="400" as="targetPoint" />
          </mxGeometry>
        </mxCell>
        <mxCell id="Cq6oSJsUIb3Mimnd7tFU-46" value="" style="endArrow=none;html=1;rounded=0;exitX=0.963;exitY=0.688;exitDx=0;exitDy=0;exitPerimeter=0;" edge="1" parent="1" source="Cq6oSJsUIb3Mimnd7tFU-6" target="Cq6oSJsUIb3Mimnd7tFU-44">
          <mxGeometry width="50" height="50" relative="1" as="geometry">
            <mxPoint x="410" y="560" as="sourcePoint" />
            <mxPoint x="460" y="510" as="targetPoint" />
          </mxGeometry>
        </mxCell>
        <mxCell id="Cq6oSJsUIb3Mimnd7tFU-47" value="&lt;font style=&quot;font-size: 30px;&quot;&gt;^&lt;/font&gt;" style="text;html=1;align=center;verticalAlign=middle;resizable=0;points=[];autosize=1;strokeColor=none;fillColor=none;" vertex="1" parent="1">
          <mxGeometry x="454" y="350" width="40" height="50" as="geometry" />
        </mxCell>
        <mxCell id="Cq6oSJsUIb3Mimnd7tFU-48" value="" style="endArrow=none;html=1;rounded=0;exitX=0.875;exitY=0.763;exitDx=0;exitDy=0;exitPerimeter=0;entryX=0.038;entryY=0.413;entryDx=0;entryDy=0;entryPerimeter=0;" edge="1" parent="1" source="Cq6oSJsUIb3Mimnd7tFU-44" target="Cq6oSJsUIb3Mimnd7tFU-16">
          <mxGeometry width="50" height="50" relative="1" as="geometry">
            <mxPoint x="520" y="520" as="sourcePoint" />
            <mxPoint x="570" y="470" as="targetPoint" />
          </mxGeometry>
        </mxCell>
        <mxCell id="Cq6oSJsUIb3Mimnd7tFU-49" value="13钱已付清" style="ellipse;whiteSpace=wrap;html=1;aspect=fixed;" vertex="1" parent="1">
          <mxGeometry x="540" y="160" width="80" height="80" as="geometry" />
        </mxCell>
        <mxCell id="Cq6oSJsUIb3Mimnd7tFU-51" value="" style="endArrow=none;html=1;rounded=0;exitX=0.95;exitY=0.688;exitDx=0;exitDy=0;exitPerimeter=0;entryX=0.038;entryY=0.613;entryDx=0;entryDy=0;entryPerimeter=0;" edge="1" parent="1" source="Cq6oSJsUIb3Mimnd7tFU-2" target="Cq6oSJsUIb3Mimnd7tFU-49">
          <mxGeometry width="50" height="50" relative="1" as="geometry">
            <mxPoint x="270" y="150" as="sourcePoint" />
            <mxPoint x="320" y="100" as="targetPoint" />
          </mxGeometry>
        </mxCell>
        <mxCell id="Cq6oSJsUIb3Mimnd7tFU-52" value="" style="endArrow=none;html=1;rounded=0;exitX=1;exitY=0.5;exitDx=0;exitDy=0;entryX=0;entryY=0.338;entryDx=0;entryDy=0;entryPerimeter=0;" edge="1" parent="1" source="Cq6oSJsUIb3Mimnd7tFU-4" target="Cq6oSJsUIb3Mimnd7tFU-36">
          <mxGeometry width="50" height="50" relative="1" as="geometry">
            <mxPoint x="240" y="380" as="sourcePoint" />
            <mxPoint x="290" y="330" as="targetPoint" />
          </mxGeometry>
        </mxCell>
        <mxCell id="Cq6oSJsUIb3Mimnd7tFU-53" value="" style="endArrow=none;html=1;rounded=0;entryX=0.025;entryY=0.713;entryDx=0;entryDy=0;exitX=0.5;exitY=0;exitDx=0;exitDy=0;entryPerimeter=0;" edge="1" parent="1" source="Cq6oSJsUIb3Mimnd7tFU-44" target="Cq6oSJsUIb3Mimnd7tFU-49">
          <mxGeometry width="50" height="50" relative="1" as="geometry">
            <mxPoint x="480" y="330" as="sourcePoint" />
            <mxPoint x="530" y="280" as="targetPoint" />
          </mxGeometry>
        </mxCell>
        <mxCell id="Cq6oSJsUIb3Mimnd7tFU-54" value="V" style="text;html=1;align=center;verticalAlign=middle;resizable=0;points=[];autosize=1;strokeColor=none;fillColor=none;" vertex="1" parent="1">
          <mxGeometry x="510" y="200" width="30" height="30" as="geometry" />
        </mxCell>
        <mxCell id="Cq6oSJsUIb3Mimnd7tFU-55" value="" style="endArrow=none;html=1;rounded=0;exitX=0.8;exitY=0.05;exitDx=0;exitDy=0;exitPerimeter=0;entryX=-0.012;entryY=0.588;entryDx=0;entryDy=0;entryPerimeter=0;" edge="1" parent="1" source="Cq6oSJsUIb3Mimnd7tFU-4" target="Cq6oSJsUIb3Mimnd7tFU-13">
          <mxGeometry width="50" height="50" relative="1" as="geometry">
            <mxPoint x="300" y="270" as="sourcePoint" />
            <mxPoint x="350" y="220" as="targetPoint" />
          </mxGeometry>
        </mxCell>
        <mxCell id="Cq6oSJsUIb3Mimnd7tFU-56" value="" style="endArrow=none;html=1;rounded=0;entryX=0;entryY=0.65;entryDx=0;entryDy=0;entryPerimeter=0;exitX=0.95;exitY=0.263;exitDx=0;exitDy=0;exitPerimeter=0;" edge="1" parent="1" source="Cq6oSJsUIb3Mimnd7tFU-49" target="Cq6oSJsUIb3Mimnd7tFU-13">
          <mxGeometry width="50" height="50" relative="1" as="geometry">
            <mxPoint x="680" y="260" as="sourcePoint" />
            <mxPoint x="730" y="210" as="targetPoint" />
          </mxGeometry>
        </mxCell>
        <mxCell id="Cq6oSJsUIb3Mimnd7tFU-57" value="" style="endArrow=none;html=1;rounded=0;exitX=1;exitY=0.5;exitDx=0;exitDy=0;" edge="1" parent="1" source="Cq6oSJsUIb3Mimnd7tFU-5" target="Cq6oSJsUIb3Mimnd7tFU-14">
          <mxGeometry width="50" height="50" relative="1" as="geometry">
            <mxPoint x="530" y="340" as="sourcePoint" />
            <mxPoint x="580" y="290" as="targetPoint" />
          </mxGeometry>
        </mxCell>
        <mxCell id="Cq6oSJsUIb3Mimnd7tFU-58" value="" style="endArrow=none;html=1;rounded=0;exitX=1.038;exitY=0.638;exitDx=0;exitDy=0;exitPerimeter=0;entryX=-0.05;entryY=0.588;entryDx=0;entryDy=0;entryPerimeter=0;" edge="1" parent="1" source="Cq6oSJsUIb3Mimnd7tFU-49" target="Cq6oSJsUIb3Mimnd7tFU-14">
          <mxGeometry width="50" height="50" relative="1" as="geometry">
            <mxPoint x="610" y="270" as="sourcePoint" />
            <mxPoint x="660" y="220" as="targetPoint" />
          </mxGeometry>
        </mxCell>
        <mxCell id="Cq6oSJsUIb3Mimnd7tFU-59" value="" style="endArrow=none;html=1;rounded=0;exitX=1;exitY=0.5;exitDx=0;exitDy=0;entryX=0;entryY=0.5;entryDx=0;entryDy=0;" edge="1" parent="1" source="Cq6oSJsUIb3Mimnd7tFU-34" target="Cq6oSJsUIb3Mimnd7tFU-15">
          <mxGeometry width="50" height="50" relative="1" as="geometry">
            <mxPoint x="500" y="360" as="sourcePoint" />
            <mxPoint x="550" y="310" as="targetPoint" />
          </mxGeometry>
        </mxCell>
        <mxCell id="Cq6oSJsUIb3Mimnd7tFU-60" value="&lt;font style=&quot;font-size: 30px;&quot;&gt;^&lt;/font&gt;" style="text;html=1;align=center;verticalAlign=middle;resizable=0;points=[];autosize=1;strokeColor=none;fillColor=none;" vertex="1" parent="1">
          <mxGeometry x="650" y="350" width="40" height="50" as="geometry" />
        </mxCell>
      </root>
    </mxGraphModel>
  </diagram>
</mxfile>
